<svg width="10" height="10" viewBox="0 0 10 10" fill="none" xmlns="http://www.w3.org/2000/svg">
<g clip-path="url(#clip0_3_382)">
<path fill-rule="evenodd" clip-rule="evenodd" d="M6.68355 0.0097906C6.69084 -0.00059447 6.70514 -0.00311832 6.71553 0.0041534L7.42557 0.501332C7.43596 0.508604 7.43848 0.522916 7.43121 0.533301L6.44295 1.94467C6.9234 2.09816 7.25072 2.26373 7.25072 2.26373C7.25072 2.26373 6.45064 3.63994 5.09363 3.63994C3.73662 3.63994 2.77234 2.35729 2.77234 2.35729C2.77234 2.35729 3.11426 2.13908 3.62109 1.95194L2.53711 0.660109C2.52896 0.650396 2.53023 0.635918 2.53994 0.62777L3.20395 0.0705986C3.21367 0.0624496 3.22814 0.0637162 3.23629 0.0734281L4.60879 1.70911C4.72631 1.69582 4.84604 1.68839 4.96686 1.68839C5.14051 1.68839 5.31395 1.70159 5.48326 1.72399L6.68355 0.0097906ZM6.95203 3.70512C7.31416 3.44648 7.86213 2.77145 7.86213 2.77145C7.86213 2.77145 9.26182 3.88063 9.26182 6.2325C9.26182 8.58436 6.84197 9.99984 6.84197 9.99984C6.84197 9.99984 5.68582 8.83225 5.40199 7.35215C5.11818 5.87205 5.82184 4.22857 5.82184 4.22857C5.82184 4.22857 6.58988 3.96375 6.95203 3.70512ZM3.05197 3.70512C2.68984 3.44648 2.14188 2.77145 2.14188 2.77145C2.14188 2.77145 0.742188 3.88063 0.742188 6.2325C0.742188 8.58436 3.16203 9.99984 3.16203 9.99984C3.16203 9.99984 4.31818 8.83225 4.60201 7.35215C4.88582 5.87205 4.18217 4.22857 4.18217 4.22857C4.18217 4.22857 3.41412 3.96375 3.05197 3.70512Z" fill="white"/>
</g>
<defs>
<clipPath id="clip0_3_382">
<rect width="10" height="10" fill="white"/>
</clipPath>
</defs>
</svg>
