<svg width="10" height="10" viewBox="0 0 10 10" fill="none" xmlns="http://www.w3.org/2000/svg">
<g clip-path="url(#clip0_3_386)">
<path fill-rule="evenodd" clip-rule="evenodd" d="M4.47994 8.84473C4.66992 8.87381 4.86449 8.88889 5.06261 8.88889C7.17203 8.88889 8.88205 7.17887 8.88205 5.06945C8.88205 2.96002 7.17203 1.25 5.06261 1.25C4.92109 1.25 4.78134 1.2577 4.64382 1.2727C5.69021 2.06545 6.38205 3.43871 6.38205 5C6.38205 6.64141 5.61738 8.075 4.47994 8.84473ZM4.99316 10C7.75458 10 9.99316 7.76143 9.99316 5C9.99316 2.23857 7.75458 0 4.99316 0C2.23173 0 -0.00683594 2.23857 -0.00683594 5C-0.00683594 7.76143 2.23173 10 4.99316 10Z" fill="white"/>
</g>
<defs>
<clipPath id="clip0_3_386">
<rect width="10" height="10" fill="white"/>
</clipPath>
</defs>
</svg>
