<svg width="10" height="10" viewBox="0 0 10 10" fill="none" xmlns="http://www.w3.org/2000/svg">
<g clip-path="url(#clip0_3_395)">
<path fill-rule="evenodd" clip-rule="evenodd" d="M5.48246 4.97814C5.55023 4.93682 5.60773 4.85021 5.6541 4.75396C6.26436 5.00338 6.6932 5.59275 6.6932 6.28008C6.6932 7.19316 5.93637 7.93338 5.00277 7.93338C4.61953 7.93338 4.26607 7.80863 3.98254 7.59842C3.88953 7.55438 3.81301 7.51207 3.75039 7.47744C3.65326 7.42375 3.58957 7.38854 3.54969 7.39404C3.43311 7.41012 3.46695 7.51738 3.49771 7.61482C3.51859 7.68102 3.53807 7.74268 3.50793 7.76811C3.47641 7.79475 3.3743 7.69738 3.25498 7.58363C3.09256 7.42877 2.89826 7.24352 2.80664 7.29916C2.7342 7.34316 2.80453 7.46252 2.89063 7.60861L2.89701 7.61945C2.93338 7.68121 2.97553 7.7441 3.01398 7.80148C3.09217 7.91811 3.15514 8.01209 3.12363 8.02799C3.08555 8.04721 2.8202 7.86811 2.59658 7.61945C2.51027 7.5235 2.42668 7.41947 2.34898 7.32281V7.32279C2.17893 7.11119 2.03725 6.93492 1.95772 6.9558C1.86204 6.98092 1.93442 7.17826 2.04076 7.36816C2.09049 7.45697 2.14898 7.5474 2.19963 7.6257V7.62572C2.2784 7.74748 2.33818 7.83988 2.3165 7.85125C2.28725 7.86654 2.0298 7.61551 1.85495 7.29916C1.75109 7.11125 1.66388 6.90359 1.59328 6.73549C1.51672 6.55316 1.45969 6.41736 1.42213 6.40369C1.29165 6.35621 1.29165 6.62225 1.34398 7.00621C1.35081 7.05631 1.36097 7.10885 1.37349 7.16234C1.881 8.80439 3.44 10 5.28451 10C7.5407 10 9.36969 8.21117 9.36969 6.00453C9.36969 3.9043 7.71287 2.18256 5.60781 2.02137C5.61047 1.92243 5.66211 1.72623 5.66211 1.72623C5.66211 1.72623 6.03373 0.827094 6.05338 0.634959C6.05467 0.622207 6.05621 0.60835 6.05787 0.593592C6.08102 0.385994 6.12408 0 5.79201 0C5.61467 0 5.53221 0.131927 5.43789 0.282811V0.282812C5.40168 0.340736 5.36371 0.401455 5.31797 0.458574C4.98852 0.869992 4.43453 1.38377 4.12041 1.65748C3.45647 2.23602 2.80506 2.71148 2.42514 2.98879L2.42512 2.98881C2.25232 3.11492 2.1357 3.20006 2.09961 3.23523C1.82762 3.50039 0.852379 5.25949 0.852379 5.25949C0.852379 5.25949 0.536998 5.82387 0.649098 5.93834C0.761197 6.05279 1.03153 6.02656 1.03153 6.02656C1.03153 6.02656 4.66318 5.19342 4.98832 5.12772C5.07586 5.11002 5.13766 5.0998 5.1851 5.09197C5.31391 5.0707 5.33703 5.06687 5.48246 4.97814ZM2.91475 3.9075C2.7198 4.09279 2.3965 4.53508 2.3965 4.53508C2.3965 4.53508 2.99736 4.57209 3.32828 4.25754C3.65922 3.94297 3.5834 3.40689 3.5834 3.40689C3.5834 3.40689 3.10967 3.72221 2.91475 3.9075Z" fill="white"/>
</g>
<defs>
<clipPath id="clip0_3_395">
<rect width="10" height="10" fill="white"/>
</clipPath>
</defs>
</svg>
