<svg width="10" height="10" viewBox="0 0 10 10" fill="none" xmlns="http://www.w3.org/2000/svg">
<g clip-path="url(#clip0_3_403)">
<path fill-rule="evenodd" clip-rule="evenodd" d="M2.00637 7.92926L3.61031 7.46418L4.99566 9.99721C4.99748 10.0005 5.00219 10.0005 5.00398 9.99721L6.38934 7.46418L7.9933 7.92926C7.99689 7.93029 8.00023 7.92695 7.99916 7.92336L7.534 6.35115L9.99719 5.00398C10.0005 5.00219 10.0005 4.99748 9.99721 4.99568L7.51371 3.6374L7.99916 1.99658C8.00023 1.99299 7.99689 1.98965 7.9933 1.99068L6.35172 2.46668L5.00398 0.00246461C5.00219 -0.000821478 4.99748 -0.000821569 4.99568 0.00246453L3.64795 2.46668L2.00637 1.99068C2.00277 1.98965 1.99943 1.99299 2.00051 1.99658L2.48596 3.6374L0.00246461 4.99568C-0.000821478 4.99748 -0.000821569 5.00219 0.00246453 5.00398L2.46564 6.35115L2.00051 7.92336C1.99943 7.92695 2.00277 7.93029 2.00637 7.92926ZM3.25102 5.01711L4.38732 5.63857L5.00879 6.77486C5.01059 6.77816 5.01531 6.77816 5.01711 6.77486L5.63857 5.63857L6.77486 5.01711C6.77814 5.01531 6.77814 5.01059 6.77486 5.00879L5.63857 4.38732L5.01711 3.25104C5.01531 3.24773 5.01059 3.24773 5.00879 3.25104L4.38732 4.38732L3.25102 5.00879C3.24773 5.01059 3.24773 5.01531 3.25102 5.01711Z" fill="white"/>
</g>
<defs>
<clipPath id="clip0_3_403">
<rect width="10" height="10" fill="white"/>
</clipPath>
</defs>
</svg>
