<svg width="10" height="10" viewBox="0 0 10 10" fill="none" xmlns="http://www.w3.org/2000/svg">
<g clip-path="url(#clip0_3_407)">
<path fill-rule="evenodd" clip-rule="evenodd" d="M1.72331 0.831359C1.84433 0.353543 2.27721 0 2.79264 0C3.17926 0 3.51943 0.19892 3.71639 0.5H4.03891C4.23928 0.294367 4.51922 0.166667 4.829 0.166667C5.28318 0.166667 5.67326 0.441176 5.84236 0.833334H6.11238C6.28158 0.727705 6.4815 0.666666 6.69566 0.666666C7.14986 0.666666 7.53992 0.941176 7.70902 1.33333H8.4433C8.44957 1.33333 8.45545 1.33502 8.46051 1.33797C8.49404 1.3349 8.52801 1.33333 8.56232 1.33333C9.17152 1.33333 9.66535 1.82718 9.66535 2.43637V5.74387L9.66537 5.75L9.66535 5.75613V5.80377C9.66535 5.82395 9.66481 5.84404 9.66371 5.86404C9.59734 8.15854 7.53416 10 4.99869 10C2.42137 10 0.332031 8.09721 0.332031 5.75C0.332031 4.61701 0.818846 3.58756 1.61237 2.82568C1.61039 3.93023 1.62905 5.07215 1.71505 5.05256C1.94533 5.00006 1.76541 1.5789 1.72331 0.831359Z" fill="white"/>
</g>
<defs>
<clipPath id="clip0_3_407">
<rect width="10" height="10" fill="white"/>
</clipPath>
</defs>
</svg>
