<svg width="10" height="10" viewBox="0 0 10 10" fill="none" xmlns="http://www.w3.org/2000/svg">
<path fill-rule="evenodd" clip-rule="evenodd" d="M6.88004 7.72254C7.0036 7.27076 6.76377 6.34199 6.76377 6.34199C6.76377 6.34199 6.58983 7.09861 6.31803 7.37826C6.08616 7.6168 5.80207 7.78225 5.39465 7.82572C5.72776 7.66393 5.95684 7.32656 5.95684 6.93662C5.95684 6.38924 5.50543 5.94549 4.9486 5.94549C4.39176 5.94549 3.94033 6.38924 3.94033 6.93662C3.94033 7.08611 3.97403 7.22789 4.03432 7.355C3.68604 7.07754 3.63127 6.6327 3.63127 6.6327C3.63127 6.6327 3.24237 8.24734 4.31397 9.00688C5.38555 9.76641 7.48475 9.11355 7.48475 9.11355C7.48475 9.11355 4.48067 11.2273 2.25461 8.92676C0.337049 6.945 1.75413 4.336 1.75413 4.336C1.75413 4.336 1.69293 4.57803 1.69293 4.85898C1.69293 5.13994 1.84526 5.35371 1.84526 5.35371C1.84526 5.35371 2.29965 4.39592 2.65328 4.00641C2.98797 3.63777 3.40752 3.33879 3.76991 3.08055C4.04885 2.88176 4.29393 2.70711 4.4403 2.54342C5.24649 1.64197 4.75217 0 4.75217 0C4.75217 0 5.66096 0.801172 5.91467 1.83589C6.01139 2.23031 5.94916 2.67908 5.89354 3.08039C5.80323 3.73187 5.73024 4.2583 6.38268 4.22414C7.43701 4.16893 6.52082 2.54342 6.52082 2.54342C6.52082 2.54342 8.91246 3.80045 8.73379 5.99893C8.5551 8.1974 6.11961 8.69721 6.11961 8.69721C6.11961 8.69721 6.75647 8.17432 6.88004 7.72254Z" fill="white"/>
</svg>
