<svg width="10" height="10" viewBox="0 0 10 10" fill="none" xmlns="http://www.w3.org/2000/svg">
<g clip-path="url(#clip0_3_415)">
<path fill-rule="evenodd" clip-rule="evenodd" d="M3.49047 9.33072C4.95537 9.33072 6.20951 8.51656 6.72727 7.36242C6.73359 7.34834 4.64857 7.90428 4.71506 7.70775C4.74475 7.62 6.02287 7.15309 6.95406 6.60848C7.48928 6.29545 7.73574 5.63281 7.73574 5.63281C7.73574 5.63281 6.83404 6.07061 6.3782 6.18166C5.45961 6.40549 4.651 6.38139 4.651 6.35807C4.651 6.30764 5.99367 6.05252 7.85984 4.91531C8.73764 4.38041 8.97606 3.45904 8.97606 3.45904C8.97606 3.45904 8.011 4.03389 7.4276 4.22367C6.04408 4.67373 4.78154 4.80936 4.78154 4.74846C4.78154 4.61807 5.89262 4.31254 7.07062 3.74174C7.68313 3.44496 8.21357 3.05723 8.82828 2.62604C9.8341 1.92055 9.99998 0.664062 9.99998 0.664062C9.99998 0.664062 9.00795 1.30391 8.52383 1.51639C6.52619 2.39318 4.76229 2.85311 3.49047 2.95268C1.57063 3.10299 0 4.4425 0 6.18166C0 7.92084 1.56273 9.33072 3.49047 9.33072Z" fill="white"/>
</g>
<defs>
<clipPath id="clip0_3_415">
<rect width="10" height="10" fill="white"/>
</clipPath>
</defs>
</svg>
