<svg width="10" height="10" viewBox="0 0 10 10" fill="none" xmlns="http://www.w3.org/2000/svg">
<g clip-path="url(#clip0_3_419)">
<path fill-rule="evenodd" clip-rule="evenodd" d="M7.20609 9.96537C6.30408 10.0115 5.27141 10.0115 4.92047 9.96537C2.18301 9.60523 0 7.60377 0 4.89844C0 2.19311 2.23857 0 5 0C7.76143 0 10 2.19311 10 4.89844C10 6.15666 9.51576 7.30408 8.71992 8.17162C8.50381 8.40719 8.80033 8.57242 9.1016 8.74031C9.39707 8.90498 9.69711 9.07219 9.52273 9.31078C9.33059 9.57369 8.28891 9.90994 7.20609 9.96537ZM4.29688 4.28613C4.29688 4.70883 3.94709 5.0515 3.51562 5.0515C3.08416 5.0515 2.73438 4.70883 2.73438 4.28613C2.73438 4.00264 2.8917 3.75516 3.12547 3.62287C3.13893 3.99145 3.44197 4.28611 3.81385 4.28611H4.29688V4.28613ZM6.71828 3.62287C6.70482 3.99145 6.40178 4.28611 6.0299 4.28611H5.54688V4.28613C5.54688 4.70883 5.89666 5.0515 6.32812 5.0515C6.75959 5.0515 7.10938 4.70883 7.10938 4.28613C7.10938 4.00264 6.95205 3.75516 6.71828 3.62287Z" fill="white"/>
</g>
<defs>
<clipPath id="clip0_3_419">
<rect width="10" height="10" fill="white"/>
</clipPath>
</defs>
</svg>
