<svg width="10" height="10" viewBox="0 0 10 10" fill="none" xmlns="http://www.w3.org/2000/svg">
<g clip-path="url(#clip0_3_421)">
<path fill-rule="evenodd" clip-rule="evenodd" d="M1.90238 8.60641C1.86805 8.57413 1.83411 8.54122 1.80055 8.50766C0.0293722 6.73649 0.0293725 3.86483 1.80055 2.09366C3.57173 0.32247 9.2154 0.203979 9.2154 0.203979C9.2154 0.203979 9.98575 6.73649 8.21458 8.50766C6.64153 10.0807 4.20048 10.2567 2.43323 9.03561L3.85722 7.28813L6.13358 6.79667L4.2754 6.61091L5.4563 5.40852L6.80052 5.11405L5.73759 4.79926L6.80052 2.88176L5.2886 4.57762L4.70476 3.75374L4.91028 5.11405L3.85722 6.3012L3.36907 4.79925V6.79667L1.90238 8.60641Z" fill="white"/>
</g>
<defs>
<clipPath id="clip0_3_421">
<rect width="10" height="10" fill="white"/>
</clipPath>
</defs>
</svg>
