<svg width="10" height="10" viewBox="0 0 10 10" fill="none" xmlns="http://www.w3.org/2000/svg">
<path fill-rule="evenodd" clip-rule="evenodd" d="M2.20242 8.58895C2.19971 8.58895 2.19781 8.58627 2.19871 8.58371L4.75174 1.3698C4.7523 1.36824 4.75379 1.36719 4.75545 1.36719H7.48088C7.48254 1.36719 7.48404 1.36824 7.48459 1.36982L9.99975 8.58373C10.0006 8.58629 9.99873 8.58895 9.99603 8.58895H2.27914H2.20242ZM0.00393176 8.61717C0.00118969 8.61717 -0.000708695 8.61443 0.000253139 8.61188L1.90142 3.53625C1.90199 3.53471 1.90346 3.53369 1.9051 3.53369H3.55699C3.55973 3.53369 3.56162 3.53641 3.56068 3.53896L1.72231 8.61459C1.72175 8.61613 1.72027 8.61717 1.71862 8.61717H0.00393176Z" fill="white"/>
</svg>
