<svg width="10" height="10" viewBox="0 0 10 10" fill="none" xmlns="http://www.w3.org/2000/svg">
<g clip-path="url(#clip0_3_388)">
<path fill-rule="evenodd" clip-rule="evenodd" d="M7.50602 0.762573L7.53678 3.46473L5.17994 4.59611L5.15088 2.04476L7.50602 0.762573Z" fill="white"/>
<path fill-rule="evenodd" clip-rule="evenodd" d="M9.86877 5.02046L7.53566 6.35497L5.20117 5.01835L7.53445 3.79272L9.86877 5.02046Z" fill="white"/>
<path fill-rule="evenodd" clip-rule="evenodd" d="M4.78577 5.02046L2.45266 6.35497L0.118164 5.01835L2.45145 3.79272L4.78577 5.02046Z" fill="white"/>
<path fill-rule="evenodd" clip-rule="evenodd" d="M2.42676 0.751465L4.84836 1.95079L4.78645 4.56439L2.5 3.43201L2.42676 0.751465Z" fill="white"/>
<path fill-rule="evenodd" clip-rule="evenodd" d="M7.57199 9.2485L5.15039 8.04916L5.2123 5.43555L7.49875 6.56795L7.57199 9.2485Z" fill="white"/>
<path fill-rule="evenodd" clip-rule="evenodd" d="M2.51027 9.27287L2.47949 6.57072L4.83635 5.43933L4.86541 7.99066L2.51027 9.27287Z" fill="white"/>
</g>
<defs>
<clipPath id="clip0_3_388">
<rect width="10" height="10" fill="white"/>
</clipPath>
</defs>
</svg>
