<svg width="10" height="10" viewBox="0 0 10 10" fill="none" xmlns="http://www.w3.org/2000/svg">
<g clip-path="url(#clip0_3_401)">
<path fill-rule="evenodd" clip-rule="evenodd" d="M8.35588 7.68455C9.3657 6.87711 10 5.71047 10 4.41309C10 1.9758 7.76143 0 5 0C2.23857 0 0 1.9758 0 4.41309C0 5.66363 0.58933 6.7927 1.53624 7.59572C1.47885 7.79387 1.44737 8.00939 1.44737 8.23477C1.44737 9.20967 2.03646 10 2.76316 10C3.23535 10 3.64945 9.66631 3.88158 9.16512C4.11371 9.66631 4.52781 10 5 10C5.43043 10 5.81258 9.72273 6.05264 9.29408C6.2927 9.72273 6.67484 10 7.10525 10C7.83195 10 8.42105 9.20967 8.42105 8.23477C8.42105 8.04266 8.39816 7.8577 8.35588 7.68455ZM7.89475 4.50061C7.89475 5.73799 6.56926 6.74109 4.93422 6.74109C3.29916 6.74109 1.97369 5.73799 1.97369 4.50061C1.97369 3.26322 3.29916 2.26012 4.93422 2.26012C6.56926 2.26012 7.89475 3.26322 7.89475 4.50061Z" fill="white"/>
</g>
<defs>
<clipPath id="clip0_3_401">
<rect width="10" height="10" fill="white"/>
</clipPath>
</defs>
</svg>
