<svg width="10" height="10" viewBox="0 0 10 10" fill="none" xmlns="http://www.w3.org/2000/svg">
<g clip-path="url(#clip0_3_405)">
<path fill-rule="evenodd" clip-rule="evenodd" d="M8.90478 8.30437C8.90478 8.30437 7.64385 9.31568 5.13463 8.89719C3.23092 8.57967 2.21557 6.48111 2.21557 5.35311C2.21557 2.67869 4.19498 2.07008 5.5332 2.07008C6.87141 2.07008 7.74439 3.37477 7.74439 4.38492C7.74439 5.39508 7.02994 6.27863 5.91809 6.27863C4.80625 6.27863 4.47695 5.49807 4.47695 4.78043C4.47695 4.06281 5.05756 3.80998 5.58707 3.80998C6.11658 3.80998 6.29789 4.26205 6.29789 4.65059C6.29789 5.03914 5.99643 5.17828 5.74498 5.17828C5.49353 5.17828 5.46867 5.05143 5.37244 4.91811C5.27619 4.78481 5.49518 4.2802 5.13463 4.2802C4.77408 4.2802 4.70687 4.86029 4.70687 4.86029C4.70687 4.86029 4.83832 5.98008 5.91809 5.96076C6.99787 5.94143 7.51012 5.10666 7.36125 4.2802C7.21238 3.45371 6.41029 2.57549 5.0026 2.75295C3.5949 2.93041 3.02016 4.35275 3.2735 5.87275C3.52684 7.39277 5.34779 8.27348 6.77953 7.95662C8.21129 7.63977 9.63728 6.60324 9.63728 3.97525C9.63728 1.34724 7.36125 -0.232426 4.64728 0.0279129C1.93332 0.28825 0.248613 2.66098 0.356449 5.51186C0.464285 8.36273 3.16943 9.91541 5.45691 9.99543C7.74439 10.0755 9.14672 8.75131 9.14672 8.75131C9.14672 8.75131 9.46209 8.47008 9.33844 8.25047C9.2148 8.03086 8.90478 8.30437 8.90478 8.30437Z" fill="white"/>
</g>
<defs>
<clipPath id="clip0_3_405">
<rect width="10" height="10" fill="white"/>
</clipPath>
</defs>
</svg>
