<svg width="10" height="10" viewBox="0 0 10 10" fill="none" xmlns="http://www.w3.org/2000/svg">
<g clip-path="url(#clip0_3_409)">
<path fill-rule="evenodd" clip-rule="evenodd" d="M7.71754 4.78041C7.71697 4.77963 7.71674 4.77865 7.71689 4.7777L8.35486 1.05765C8.35516 1.05594 8.35666 1.05469 8.35838 1.05469H8.56029C8.56186 1.05469 8.56322 1.0557 8.56369 1.05718L10.001 5.60803C10.0014 5.60943 10.001 5.611 9.99979 5.61191L8.94004 6.43932C8.93846 6.44055 8.93617 6.44023 8.93498 6.43861L7.71754 4.78041ZM-0.0195312 7.24652C-0.0195312 7.24807 -0.0185391 7.24943 -0.0170724 7.24992L2.16748 7.9642C2.16854 7.96455 2.16971 7.96437 2.17062 7.96375L7.05361 4.59266C7.05443 4.59209 7.05498 4.59121 7.05512 4.59023L7.57875 1.07673C7.57908 1.07457 7.5774 1.07263 7.57523 1.07263H3.25012C3.24904 1.07263 3.24805 1.07311 3.24736 1.07392L-0.0187104 5.01395C-0.019241 5.01459 -0.0195312 5.01539 -0.0195312 5.01623V7.24652ZM3.07779 8.14619L5.46438 8.92797C5.46545 8.92832 5.46664 8.92814 5.46756 8.92748L8.30895 6.88934C8.31053 6.88822 8.31092 6.88605 8.30984 6.88445L7.24469 5.29939C7.24357 5.29773 7.24135 5.2973 7.23971 5.29844L3.07779 8.14619Z" fill="white"/>
</g>
<defs>
<clipPath id="clip0_3_409">
<rect width="10" height="10" fill="white"/>
</clipPath>
</defs>
</svg>
