<svg width="10" height="10" viewBox="0 0 10 10" fill="none" xmlns="http://www.w3.org/2000/svg">
<g clip-path="url(#clip0_3_413)">
<path fill-rule="evenodd" clip-rule="evenodd" d="M0.000998256 4.97123C-0.000332121 4.96896 -0.000332789 4.96615 0.000996477 4.96387L2.51553 0.667662C2.51684 0.665434 2.51924 0.664062 2.52182 0.664062H7.50574C7.50834 0.664062 7.51074 0.665445 7.51205 0.667693L9.999 4.96391C10.0003 4.96615 10.0003 4.96895 9.999 4.97119L7.51205 9.26258C7.51074 9.26482 7.50834 9.26621 7.50574 9.26621H2.52182C2.51924 9.26621 2.51684 9.26484 2.51553 9.26262L0.000998256 4.97123ZM7.31674 4.96514C7.31674 6.2442 6.27984 7.28109 5.00078 7.28109C3.72172 7.28109 2.68482 6.2442 2.68482 4.96514C2.68482 3.68605 3.72172 2.64918 5.00078 2.64918C6.27984 2.64918 7.31674 3.68605 7.31674 4.96514Z" fill="white"/>
</g>
<defs>
<clipPath id="clip0_3_413">
<rect width="10" height="10" fill="white"/>
</clipPath>
</defs>
</svg>
