<svg width="10" height="10" viewBox="0 0 10 10" fill="none" xmlns="http://www.w3.org/2000/svg">
<path fill-rule="evenodd" clip-rule="evenodd" d="M8.24555 6.76787C8.24555 8.55268 6.79322 9.99955 5.00168 9.99955C3.21014 9.99955 1.75781 8.55268 1.75781 6.76787C1.75781 5.03201 4.82621 0.264607 4.99449 0.00444941C4.99834 -0.00148317 5.00504 -0.00148312 5.00887 0.00444947C5.17715 0.264607 8.24555 5.03201 8.24555 6.76787ZM4.46094 8.9635C2.81484 8.60332 3.09652 6.77988 3.09652 6.77988C3.09652 6.77988 3.54602 7.88062 4.63682 8.23719C5.7276 8.59373 7.0458 8.0708 7.0458 8.0708C7.0458 8.0708 6.10703 9.32365 4.46094 8.9635Z" fill="white"/>
</svg>
