<svg width="28" height="28" viewBox="0 0 28 28" fill="none" xmlns="http://www.w3.org/2000/svg">
<path d="M24.2596 19.2434C23.6525 18.1978 22.7502 15.2392 22.7502 11.375C22.7502 9.05436 21.8283 6.82876 20.1874 5.18782C18.5464 3.54687 16.3208 2.625 14.0002 2.625C11.6796 2.625 9.45396 3.54687 7.81301 5.18782C6.17207 6.82876 5.2502 9.05436 5.2502 11.375C5.2502 15.2403 4.34676 18.1978 3.73973 19.2434C3.58471 19.5093 3.50253 19.8113 3.50148 20.119C3.50042 20.4267 3.58052 20.7293 3.73371 20.9962C3.8869 21.263 4.10775 21.4848 4.374 21.6391C4.64025 21.7934 4.94247 21.8748 5.2502 21.875H9.71379C9.91567 22.8628 10.4525 23.7506 11.2336 24.3882C12.0146 25.0258 12.992 25.374 14.0002 25.374C15.0084 25.374 15.9857 25.0258 16.7668 24.3882C17.5479 23.7506 18.0847 22.8628 18.2866 21.875H22.7502C23.0578 21.8746 23.3599 21.7931 23.626 21.6387C23.8921 21.4843 24.1128 21.2625 24.2659 20.9957C24.4189 20.7288 24.4989 20.4263 24.4978 20.1187C24.4967 19.8111 24.4145 19.5092 24.2596 19.2434ZM14.0002 23.625C13.4575 23.6248 12.9282 23.4565 12.4851 23.1431C12.0421 22.8297 11.707 22.3867 11.5261 21.875H16.4743C16.2934 22.3867 15.9583 22.8297 15.5153 23.1431C15.0722 23.4565 14.5429 23.6248 14.0002 23.625ZM5.2502 20.125C6.09238 18.6769 7.0002 15.3212 7.0002 11.375C7.0002 9.51848 7.73769 7.73801 9.05045 6.42525C10.3632 5.1125 12.1437 4.375 14.0002 4.375C15.8567 4.375 17.6372 5.1125 18.9499 6.42525C20.2627 7.73801 21.0002 9.51848 21.0002 11.375C21.0002 15.318 21.9058 18.6736 22.7502 20.125H5.2502Z" fill="#555252"/>
</svg>
