<svg width="44" height="44" viewBox="0 0 44 44" fill="none" xmlns="http://www.w3.org/2000/svg">
<g clip-path="url(#clip0_3_576)" filter="url(#filter0_d_3_576)">
<g filter="url(#filter1_d_3_576)">
<path d="M33.3333 23.3333C35.8167 20.9 38.3333 17.9833 38.3333 14.1667C38.3333 11.7355 37.3676 9.40394 35.6485 7.68485C33.9294 5.96577 31.5978 5 29.1667 5C26.2333 5 24.1667 5.83333 21.6667 8.33333C19.1667 5.83333 17.1 5 14.1667 5C11.7355 5 9.40394 5.96577 7.68485 7.68485C5.96577 9.40394 5 11.7355 5 14.1667C5 18 7.5 20.9167 10 23.3333L21.6667 35L33.3333 23.3333Z" stroke="black" stroke-width="2" stroke-linecap="round" stroke-linejoin="round" shape-rendering="crispEdges"/>
</g>
</g>
<defs>
<filter id="filter0_d_3_576" x="-2.33325" y="0" width="48" height="48" filterUnits="userSpaceOnUse" color-interpolation-filters="sRGB">
<feFlood flood-opacity="0" result="BackgroundImageFix"/>
<feColorMatrix in="SourceAlpha" type="matrix" values="0 0 0 0 0 0 0 0 0 0 0 0 0 0 0 0 0 0 127 0" result="hardAlpha"/>
<feOffset dy="4"/>
<feGaussianBlur stdDeviation="2"/>
<feComposite in2="hardAlpha" operator="out"/>
<feColorMatrix type="matrix" values="0 0 0 0 0 0 0 0 0 0 0 0 0 0 0 0 0 0 0.25 0"/>
<feBlend mode="normal" in2="BackgroundImageFix" result="effect1_dropShadow_3_576"/>
<feBlend mode="normal" in="SourceGraphic" in2="effect1_dropShadow_3_576" result="shape"/>
</filter>
<filter id="filter1_d_3_576" x="0" y="4" width="43.3333" height="40" filterUnits="userSpaceOnUse" color-interpolation-filters="sRGB">
<feFlood flood-opacity="0" result="BackgroundImageFix"/>
<feColorMatrix in="SourceAlpha" type="matrix" values="0 0 0 0 0 0 0 0 0 0 0 0 0 0 0 0 0 0 127 0" result="hardAlpha"/>
<feOffset dy="4"/>
<feGaussianBlur stdDeviation="2"/>
<feComposite in2="hardAlpha" operator="out"/>
<feColorMatrix type="matrix" values="0 0 0 0 0 0 0 0 0 0 0 0 0 0 0 0 0 0 0.25 0"/>
<feBlend mode="normal" in2="BackgroundImageFix" result="effect1_dropShadow_3_576"/>
<feBlend mode="normal" in="SourceGraphic" in2="effect1_dropShadow_3_576" result="shape"/>
</filter>
<clipPath id="clip0_3_576">
<rect width="40" height="40" fill="white" transform="translate(1.66675)"/>
</clipPath>
</defs>
</svg>
