<svg width="158" height="156" viewBox="0 0 158 156" fill="none" xmlns="http://www.w3.org/2000/svg">
<g opacity="0.8" filter="url(#filter0_f_24_3818)">
<mask id="path-1-inside-1_24_3818" fill="white">
<path d="M145.805 83.0771C143.169 117.156 114.223 144 78.9023 144C43.582 144 14.6356 117.156 12 83.0771H52.8525C55.4773 94.7045 65.8208 103.385 78.1816 103.385C90.5423 103.385 100.885 94.7044 103.51 83.0771H145.805ZM78.9023 12C113.72 12 142.344 38.0859 145.676 71.4727H103.51C100.885 59.8454 90.5423 51.1652 78.1816 51.165C65.8208 51.165 55.4773 59.8452 52.8525 71.4727H12.1299C15.4621 38.086 44.0846 12.0001 78.9023 12Z"/>
</mask>
<path d="M145.805 83.0771C143.169 117.156 114.223 144 78.9023 144C43.582 144 14.6356 117.156 12 83.0771H52.8525C55.4773 94.7045 65.8208 103.385 78.1816 103.385C90.5423 103.385 100.885 94.7044 103.51 83.0771H145.805ZM78.9023 12C113.72 12 142.344 38.0859 145.676 71.4727H103.51C100.885 59.8454 90.5423 51.1652 78.1816 51.165C65.8208 51.165 55.4773 59.8452 52.8525 71.4727H12.1299C15.4621 38.086 44.0846 12.0001 78.9023 12Z" fill="black" fill-opacity="0.15"/>
<path d="M145.805 83.0771L146.303 83.1157L146.345 82.5771H145.805V83.0771ZM78.9023 144L78.9023 144.5H78.9023V144ZM12 83.0771V82.5771H11.4598L11.5015 83.1157L12 83.0771ZM52.8525 83.0771L53.3403 82.967L53.2523 82.5771H52.8525V83.0771ZM78.1816 103.385L78.1816 103.885L78.1816 103.885L78.1816 103.385ZM103.51 83.0771V82.5771H103.11L103.022 82.967L103.51 83.0771ZM78.9023 12L78.9023 11.5L78.9023 11.5L78.9023 12ZM145.676 71.4727V71.9727H146.228L146.173 71.423L145.676 71.4727ZM103.51 71.4727L103.022 71.5828L103.11 71.9727H103.51V71.4727ZM78.1816 51.165L78.1816 50.665H78.1816V51.165ZM52.8525 71.4727V71.9727H53.2523L53.3403 71.5828L52.8525 71.4727ZM12.1299 71.4727L11.6324 71.423L11.5775 71.9727H12.1299V71.4727ZM145.805 83.0771L145.306 83.0386C142.691 116.852 113.966 143.5 78.9023 143.5V144V144.5C114.479 144.5 143.647 117.459 146.303 83.1157L145.805 83.0771ZM78.9023 144L78.9023 143.5C43.8383 143.5 15.1136 116.852 12.4985 83.0386L12 83.0771L11.5015 83.1157C14.1576 117.459 43.3258 144.5 78.9023 144.5L78.9023 144ZM12 83.0771V83.5771H52.8525V83.0771V82.5771H12V83.0771ZM52.8525 83.0771L52.3648 83.1872C55.0395 95.0359 65.5803 103.885 78.1816 103.885V103.385V102.885C66.0613 102.885 55.9151 94.3731 53.3403 82.967L52.8525 83.0771ZM78.1816 103.385L78.1816 103.885C90.7828 103.885 101.323 95.0358 103.997 83.1872L103.51 83.0771L103.022 82.967C100.447 94.373 90.3017 102.885 78.1816 102.885L78.1816 103.385ZM103.51 83.0771V83.5771H145.805V83.0771V82.5771H103.51V83.0771ZM78.9023 12V12.5C113.467 12.5 141.872 38.3953 145.178 71.5223L145.676 71.4727L146.173 71.423C142.815 37.7765 113.973 11.5 78.9023 11.5V12ZM145.676 71.4727V70.9727H103.51V71.4727V71.9727H145.676V71.4727ZM103.51 71.4727L103.997 71.3626C101.323 59.514 90.7828 50.6652 78.1816 50.665L78.1816 51.165L78.1816 51.665C90.3018 51.6652 100.447 60.1768 103.022 71.5828L103.51 71.4727ZM78.1816 51.165V50.665C65.5803 50.665 55.0395 59.5138 52.3648 71.3626L52.8525 71.4727L53.3403 71.5828C55.915 60.1766 66.0613 51.665 78.1816 51.665V51.165ZM52.8525 71.4727V70.9727H12.1299V71.4727V71.9727H52.8525V71.4727ZM12.1299 71.4727L12.6274 71.5223C15.9338 38.3954 44.3374 12.5001 78.9023 12.5L78.9023 12L78.9023 11.5C43.8318 11.5001 14.9905 37.7766 11.6324 71.423L12.1299 71.4727Z" fill="black" fill-opacity="0.4" mask="url(#path-1-inside-1_24_3818)"/>
<circle cx="79.3047" cy="76.5" r="17.5" fill="black" fill-opacity="0.15"/>
</g>
<defs>
<filter id="filter0_f_24_3818" x="0" y="0" width="157.805" height="156" filterUnits="userSpaceOnUse" color-interpolation-filters="sRGB">
<feFlood flood-opacity="0" result="BackgroundImageFix"/>
<feBlend mode="normal" in="SourceGraphic" in2="BackgroundImageFix" result="shape"/>
<feGaussianBlur stdDeviation="6" result="effect1_foregroundBlur_24_3818"/>
</filter>
</defs>
</svg>
