<svg width="32" height="32" viewBox="0 0 32 32" fill="none" xmlns="http://www.w3.org/2000/svg">
<mask id="path-1-outside-1_3_483" maskUnits="userSpaceOnUse" x="-0.5" y="-0.5" width="32" height="32" fill="black">
<rect fill="white" x="-0.5" y="-0.5" width="32" height="32"/>
<path d="M15.667 0.5C24.0432 0.500176 30.833 7.29078 30.833 15.667C30.8328 24.0431 24.0431 30.8328 15.667 30.833C7.29078 30.833 0.500176 24.0432 0.5 15.667C0.5 7.29067 7.29067 0.5 15.667 0.5ZM1.66699 15.667C1.66717 23.3988 7.93511 29.667 15.667 29.667C23.3988 29.6669 29.6668 23.3987 29.667 15.667H20.334L20.3271 15.9072C20.202 18.3726 18.1635 20.3338 15.667 20.334C13.0898 20.334 11.0002 18.2442 11 15.667H1.66699ZM15.667 12.167C13.734 12.167 12.167 13.734 12.167 15.667C12.1672 17.5998 13.7341 19.167 15.667 19.167C17.5998 19.1669 19.1668 17.5998 19.167 15.667C19.167 13.7341 17.5999 12.1671 15.667 12.167ZM15.667 1.66699C8.27126 1.66699 2.2159 7.40175 1.70312 14.667H11.1084C11.5662 12.5703 13.433 11 15.667 11C17.9008 11.0002 19.7667 12.5705 20.2246 14.667H29.6309C29.1181 7.40183 23.0626 1.66712 15.667 1.66699Z"/>
</mask>
<path d="M15.667 0.5C24.0432 0.500176 30.833 7.29078 30.833 15.667C30.8328 24.0431 24.0431 30.8328 15.667 30.833C7.29078 30.833 0.500176 24.0432 0.5 15.667C0.5 7.29067 7.29067 0.5 15.667 0.5ZM1.66699 15.667C1.66717 23.3988 7.93511 29.667 15.667 29.667C23.3988 29.6669 29.6668 23.3987 29.667 15.667H20.334L20.3271 15.9072C20.202 18.3726 18.1635 20.3338 15.667 20.334C13.0898 20.334 11.0002 18.2442 11 15.667H1.66699ZM15.667 12.167C13.734 12.167 12.167 13.734 12.167 15.667C12.1672 17.5998 13.7341 19.167 15.667 19.167C17.5998 19.1669 19.1668 17.5998 19.167 15.667C19.167 13.7341 17.5999 12.1671 15.667 12.167ZM15.667 1.66699C8.27126 1.66699 2.2159 7.40175 1.70312 14.667H11.1084C11.5662 12.5703 13.433 11 15.667 11C17.9008 11.0002 19.7667 12.5705 20.2246 14.667H29.6309C29.1181 7.40183 23.0626 1.66712 15.667 1.66699Z" fill="#555252"/>
<path d="M15.667 0.5L15.667 0H15.667V0.5ZM30.833 15.667L31.333 15.667V15.667H30.833ZM15.667 30.833V31.333H15.667L15.667 30.833ZM0.5 15.667H0V15.667L0.5 15.667ZM1.66699 15.667V15.167H1.16698L1.16699 15.667L1.66699 15.667ZM15.667 29.667V30.167H15.667L15.667 29.667ZM29.667 15.667L30.167 15.667L30.167 15.167H29.667V15.667ZM20.334 15.667V15.167H19.848L19.8342 15.6528L20.334 15.667ZM20.3271 15.9072L20.8266 15.9326L20.8269 15.9214L20.3271 15.9072ZM15.667 20.334V20.834H15.667L15.667 20.334ZM11 15.667L11.5 15.667L11.5 15.167H11V15.667ZM15.667 12.167L15.667 11.667H15.667V12.167ZM12.167 15.667H11.667V15.667L12.167 15.667ZM15.667 19.167V19.667H15.667L15.667 19.167ZM19.167 15.667L19.667 15.667V15.667H19.167ZM15.667 1.66699L15.667 1.16699H15.667V1.66699ZM1.70312 14.667L1.20437 14.6318L1.16659 15.167H1.70312V14.667ZM11.1084 14.667V15.167H11.511L11.5969 14.7737L11.1084 14.667ZM15.667 11L15.667 10.5H15.667V11ZM20.2246 14.667L19.7361 14.7737L19.822 15.167H20.2246V14.667ZM29.6309 14.667V15.167H30.1674L30.1296 14.6318L29.6309 14.667ZM15.667 0.5L15.667 1C23.767 1.00017 30.333 7.56689 30.333 15.667H30.833H31.333C31.333 7.01467 24.3193 0.000181556 15.667 0L15.667 0.5ZM30.833 15.667L30.333 15.667C30.3328 23.7669 23.7669 30.3328 15.667 30.333L15.667 30.833L15.667 31.333C24.3192 31.3328 31.3328 24.3192 31.333 15.667L30.833 15.667ZM15.667 30.833V30.333C7.56689 30.333 1.00017 23.767 1 15.667L0.5 15.667L0 15.667C0.000181556 24.3193 7.01467 31.333 15.667 31.333V30.833ZM0.5 15.667H1C1 7.56682 7.56682 1 15.667 1V0.5V0C7.01453 0 0 7.01453 0 15.667H0.5ZM1.66699 15.667L1.16699 15.667C1.16717 23.675 7.65896 30.167 15.667 30.167V29.667V29.167C8.21127 29.167 2.16716 23.1227 2.16699 15.667L1.66699 15.667ZM15.667 29.667L15.667 30.167C23.6749 30.1669 30.1668 23.6749 30.167 15.667L29.667 15.667L29.167 15.667C29.1668 23.1226 23.1226 29.1669 15.667 29.167L15.667 29.667ZM29.667 15.667V15.167H20.334V15.667V16.167H29.667V15.667ZM20.334 15.667L19.8342 15.6528L19.8274 15.893L20.3271 15.9072L20.8269 15.9214L20.8338 15.6812L20.334 15.667ZM20.3271 15.9072L19.8278 15.8819C19.716 18.0828 17.8957 19.8338 15.667 19.834L15.667 20.334L15.667 20.834C18.4313 20.8338 20.6879 18.6625 20.8265 15.9326L20.3271 15.9072ZM15.667 20.334V19.834C13.3659 19.834 11.5002 17.9681 11.5 15.667L11 15.667L10.5 15.667C10.5002 18.5203 12.8136 20.834 15.667 20.834V20.334ZM11 15.667V15.167H1.66699V15.667V16.167H11V15.667ZM15.667 12.167V11.667C13.4579 11.667 11.667 13.4579 11.667 15.667H12.167H12.667C12.667 14.0101 14.0101 12.667 15.667 12.667V12.167ZM12.167 15.667L11.667 15.667C11.6672 17.8759 13.4579 19.667 15.667 19.667V19.167V18.667C14.0103 18.667 12.6671 17.3237 12.667 15.6669L12.167 15.667ZM15.667 19.167L15.667 19.667C17.8759 19.6668 19.6668 17.8759 19.667 15.667L19.167 15.667L18.667 15.6669C18.6668 17.3236 17.3236 18.6669 15.667 18.667L15.667 19.167ZM19.167 15.667H19.667C19.667 13.4579 17.876 11.6671 15.667 11.667L15.667 12.167L15.667 12.667C17.3238 12.6671 18.667 14.0103 18.667 15.667H19.167ZM15.667 1.66699V1.16699C8.00687 1.16699 1.73549 7.10663 1.20437 14.6318L1.70312 14.667L2.20188 14.7022C2.69632 7.69687 8.53566 2.16699 15.667 2.16699V1.66699ZM1.70312 14.667V15.167H11.1084V14.667V14.167H1.70312V14.667ZM11.1084 14.667L11.5969 14.7737C12.0057 12.9016 13.6731 11.5 15.667 11.5V11V10.5C13.1928 10.5 11.1268 12.239 10.6199 14.5603L11.1084 14.667ZM15.667 11L15.667 11.5C17.6606 11.5001 19.3273 12.9016 19.7361 14.7737L20.2246 14.667L20.7131 14.5603C20.2062 12.2393 18.1411 10.5002 15.667 10.5L15.667 11ZM20.2246 14.667V15.167H29.6309V14.667V14.167H20.2246V14.667ZM29.6309 14.667L30.1296 14.6318C29.5985 7.1067 23.327 1.16712 15.667 1.16699L15.667 1.66699L15.667 2.16699C22.7982 2.16711 28.6377 7.69696 29.1321 14.7022L29.6309 14.667Z" fill="#555252" mask="url(#path-1-outside-1_3_483)"/>
</svg>
