<svg width="33" height="33" viewBox="0 0 33 33" fill="none" xmlns="http://www.w3.org/2000/svg">
<path d="M25.2669 28.3C25.2669 25.8865 24.3081 23.5719 22.6016 21.8653C20.895 20.1587 18.5804 19.2 16.1669 19.2C13.7534 19.2 11.4388 20.1587 9.73222 21.8653C8.02564 23.5719 7.06689 25.8865 7.06689 28.3" stroke="#555252" stroke-width="2" stroke-linecap="round" stroke-linejoin="round"/>
<path d="M16.1668 19.2C19.5173 19.2 22.2334 16.4838 22.2334 13.1333C22.2334 9.78279 19.5173 7.06665 16.1668 7.06665C12.8162 7.06665 10.1001 9.78279 10.1001 13.1333C10.1001 16.4838 12.8162 19.2 16.1668 19.2Z" stroke="#555252" stroke-width="2" stroke-linecap="round" stroke-linejoin="round"/>
<path d="M16.1667 31.3333C24.543 31.3333 31.3333 24.543 31.3333 16.1667C31.3333 7.79035 24.543 1 16.1667 1C7.79035 1 1 7.79035 1 16.1667C1 24.543 7.79035 31.3333 16.1667 31.3333Z" stroke="#555252" stroke-width="2" stroke-linecap="round" stroke-linejoin="round"/>
</svg>
